# xmcd
# Copyright (C) 1995-1998 Ti Kan
#
# Track frame offsets:
#       150
#       17297
#       36741
#       61852
#
# Disc length: 1114 seconds
#
# Revision: 0
# Processed by: cddbd v1.5.2PL0 Copyright (c) Steve Scherf et al.
# Submitted via: CD-Import v1.0
#
DISCID=2a045804
DTITLE=Fogel - Figgdi.ch
DYEAR=2007
DGENRE=
TTITLE0=Liichesack
TTITLE1=Fraag Vo De Ziit Feat. Jayce
TTITLE2=Grabstei
TTITLE3=Sau Du
EXTD=
EXTT0=
EXTT1=
EXTT2=
EXTT3=
PLAYORDER=
